<svg width="283" height="12" viewBox="0 0 283 12" fill="none" xmlns="http://www.w3.org/2000/svg">
<path d="M5.51367 5.23242H1.93359V9H0.808594V0.46875H6.09375V1.39453H1.93359V4.3125H5.51367V5.23242ZM10.4492 9H9.36523V2.66016H10.4492V9ZM9.27734 0.978516C9.27734 0.802734 9.33008 0.654297 9.43555 0.533203C9.54492 0.412109 9.70508 0.351562 9.91602 0.351562C10.127 0.351562 10.2871 0.412109 10.3965 0.533203C10.5059 0.654297 10.5605 0.802734 10.5605 0.978516C10.5605 1.1543 10.5059 1.30078 10.3965 1.41797C10.2871 1.53516 10.127 1.59375 9.91602 1.59375C9.70508 1.59375 9.54492 1.53516 9.43555 1.41797C9.33008 1.30078 9.27734 1.1543 9.27734 0.978516ZM15.2148 2.66016L15.25 3.45703C15.7344 2.84766 16.3672 2.54297 17.1484 2.54297C18.4883 2.54297 19.1641 3.29883 19.1758 4.81055V9H18.0918V4.80469C18.0879 4.34766 17.9824 4.00977 17.7754 3.79102C17.5723 3.57227 17.2539 3.46289 16.8203 3.46289C16.4688 3.46289 16.1602 3.55664 15.8945 3.74414C15.6289 3.93164 15.4219 4.17773 15.2734 4.48242V9H14.1895V2.66016H15.2148ZM26.7246 9C26.6621 8.875 26.6113 8.65234 26.5723 8.33203C26.0684 8.85547 25.4668 9.11719 24.7676 9.11719C24.1426 9.11719 23.6289 8.94141 23.2266 8.58984C22.8281 8.23438 22.6289 7.78516 22.6289 7.24219C22.6289 6.58203 22.8789 6.07031 23.3789 5.70703C23.8828 5.33984 24.5898 5.15625 25.5 5.15625H26.5547V4.6582C26.5547 4.2793 26.4414 3.97852 26.2148 3.75586C25.9883 3.5293 25.6543 3.41602 25.2129 3.41602C24.8262 3.41602 24.502 3.51367 24.2402 3.70898C23.9785 3.9043 23.8477 4.14062 23.8477 4.41797H22.7578C22.7578 4.10156 22.8691 3.79688 23.0918 3.50391C23.3184 3.20703 23.623 2.97266 24.0059 2.80078C24.3926 2.62891 24.8164 2.54297 25.2773 2.54297C26.0078 2.54297 26.5801 2.72656 26.9941 3.09375C27.4082 3.45703 27.623 3.95898 27.6387 4.59961V7.51758C27.6387 8.09961 27.7129 8.5625 27.8613 8.90625V9H26.7246ZM24.9258 8.17383C25.2656 8.17383 25.5879 8.08594 25.8926 7.91016C26.1973 7.73438 26.418 7.50586 26.5547 7.22461V5.92383H25.7051C24.377 5.92383 23.7129 6.3125 23.7129 7.08984C23.7129 7.42969 23.8262 7.69531 24.0527 7.88672C24.2793 8.07812 24.5703 8.17383 24.9258 8.17383ZM32.3633 2.66016L32.3984 3.45703C32.8828 2.84766 33.5156 2.54297 34.2969 2.54297C35.6367 2.54297 36.3125 3.29883 36.3242 4.81055V9H35.2402V4.80469C35.2363 4.34766 35.1309 4.00977 34.9238 3.79102C34.7207 3.57227 34.4023 3.46289 33.9688 3.46289C33.6172 3.46289 33.3086 3.55664 33.043 3.74414C32.7773 3.93164 32.5703 4.17773 32.4219 4.48242V9H31.3379V2.66016H32.3633ZM42.502 8.23242C42.8887 8.23242 43.2266 8.11523 43.5156 7.88086C43.8047 7.64648 43.9648 7.35352 43.9961 7.00195H45.0215C45.002 7.36523 44.877 7.71094 44.6465 8.03906C44.416 8.36719 44.1074 8.62891 43.7207 8.82422C43.3379 9.01953 42.9316 9.11719 42.502 9.11719C41.6387 9.11719 40.9512 8.83008 40.4395 8.25586C39.9316 7.67773 39.6777 6.88867 39.6777 5.88867V5.70703C39.6777 5.08984 39.791 4.54102 40.0176 4.06055C40.2441 3.58008 40.5684 3.20703 40.9902 2.94141C41.416 2.67578 41.918 2.54297 42.4961 2.54297C43.207 2.54297 43.7969 2.75586 44.2656 3.18164C44.7383 3.60742 44.9902 4.16016 45.0215 4.83984H43.9961C43.9648 4.42969 43.8086 4.09375 43.5273 3.83203C43.25 3.56641 42.9062 3.43359 42.4961 3.43359C41.9453 3.43359 41.5176 3.63281 41.2129 4.03125C40.9121 4.42578 40.7617 4.99805 40.7617 5.74805V5.95312C40.7617 6.68359 40.9121 7.24609 41.2129 7.64062C41.5137 8.03516 41.9434 8.23242 42.502 8.23242ZM49.418 9H48.334V2.66016H49.418V9ZM48.2461 0.978516C48.2461 0.802734 48.2988 0.654297 48.4043 0.533203C48.5137 0.412109 48.6738 0.351562 48.8848 0.351562C49.0957 0.351562 49.2559 0.412109 49.3652 0.533203C49.4746 0.654297 49.5293 0.802734 49.5293 0.978516C49.5293 1.1543 49.4746 1.30078 49.3652 1.41797C49.2559 1.53516 49.0957 1.59375 48.8848 1.59375C48.6738 1.59375 48.5137 1.53516 48.4043 1.41797C48.2988 1.30078 48.2461 1.1543 48.2461 0.978516ZM54.1836 2.66016L54.2188 3.45703C54.7031 2.84766 55.3359 2.54297 56.1172 2.54297C57.457 2.54297 58.1328 3.29883 58.1445 4.81055V9H57.0605V4.80469C57.0566 4.34766 56.9512 4.00977 56.7441 3.79102C56.541 3.57227 56.2227 3.46289 55.7891 3.46289C55.4375 3.46289 55.1289 3.55664 54.8633 3.74414C54.5977 3.93164 54.3906 4.17773 54.2422 4.48242V9H53.1582V2.66016H54.1836ZM61.5215 5.77734C61.5215 4.78906 61.75 4.00391 62.207 3.42188C62.6641 2.83594 63.2695 2.54297 64.0234 2.54297C64.7969 2.54297 65.4004 2.81641 65.834 3.36328L65.8867 2.66016H66.877V8.84766C66.877 9.66797 66.6328 10.3145 66.1445 10.7871C65.6602 11.2598 65.0078 11.4961 64.1875 11.4961C63.7305 11.4961 63.2832 11.3984 62.8457 11.2031C62.4082 11.0078 62.0742 10.7402 61.8438 10.4004L62.4062 9.75C62.8711 10.3242 63.4395 10.6113 64.1113 10.6113C64.6387 10.6113 65.0488 10.4629 65.3418 10.166C65.6387 9.86914 65.7871 9.45117 65.7871 8.91211V8.36719C65.3535 8.86719 64.7617 9.11719 64.0117 9.11719C63.2695 9.11719 62.668 8.81836 62.207 8.2207C61.75 7.62305 61.5215 6.80859 61.5215 5.77734ZM62.6113 5.90039C62.6113 6.61523 62.7578 7.17773 63.0508 7.58789C63.3438 7.99414 63.7539 8.19727 64.2812 8.19727C64.9648 8.19727 65.4668 7.88672 65.7871 7.26562V4.37109C65.4551 3.76562 64.957 3.46289 64.293 3.46289C63.7656 3.46289 63.3535 3.66797 63.0566 4.07812C62.7598 4.48828 62.6113 5.0957 62.6113 5.90039ZM75.207 5.77148C75.207 5.15039 75.3281 4.5918 75.5703 4.0957C75.8164 3.59961 76.1562 3.2168 76.5898 2.94727C77.0273 2.67773 77.5254 2.54297 78.084 2.54297C78.9473 2.54297 79.6445 2.8418 80.1758 3.43945C80.7109 4.03711 80.9785 4.83203 80.9785 5.82422V5.90039C80.9785 6.51758 80.8594 7.07227 80.6211 7.56445C80.3867 8.05273 80.0488 8.43359 79.6074 8.70703C79.1699 8.98047 78.666 9.11719 78.0957 9.11719C77.2363 9.11719 76.5391 8.81836 76.0039 8.2207C75.4727 7.62305 75.207 6.83203 75.207 5.84766V5.77148ZM76.2969 5.90039C76.2969 6.60352 76.459 7.16797 76.7832 7.59375C77.1113 8.01953 77.5488 8.23242 78.0957 8.23242C78.6465 8.23242 79.084 8.01758 79.4082 7.58789C79.7324 7.1543 79.8945 6.54883 79.8945 5.77148C79.8945 5.07617 79.7285 4.51367 79.3965 4.08398C79.0684 3.65039 78.6309 3.43359 78.084 3.43359C77.5488 3.43359 77.1172 3.64648 76.7891 4.07227C76.4609 4.49805 76.2969 5.10742 76.2969 5.90039ZM89.6934 5.90039C89.6934 6.86523 89.4727 7.64258 89.0312 8.23242C88.5898 8.82227 87.9922 9.11719 87.2383 9.11719C86.4688 9.11719 85.8633 8.87305 85.4219 8.38477V11.4375H84.3379V2.66016H85.3281L85.3809 3.36328C85.8223 2.81641 86.4355 2.54297 87.2207 2.54297C87.9824 2.54297 88.584 2.83008 89.0254 3.4043C89.4707 3.97852 89.6934 4.77734 89.6934 5.80078V5.90039ZM88.6094 5.77734C88.6094 5.0625 88.457 4.49805 88.1523 4.08398C87.8477 3.66992 87.4297 3.46289 86.8984 3.46289C86.2422 3.46289 85.75 3.75391 85.4219 4.33594V7.36523C85.7461 7.94336 86.2422 8.23242 86.9102 8.23242C87.4297 8.23242 87.8418 8.02734 88.1465 7.61719C88.4551 7.20312 88.6094 6.58984 88.6094 5.77734ZM94.5469 1.125V2.66016H95.7305V3.49805H94.5469V7.42969C94.5469 7.68359 94.5996 7.875 94.7051 8.00391C94.8105 8.12891 94.9902 8.19141 95.2441 8.19141C95.3691 8.19141 95.541 8.16797 95.7598 8.12109V9C95.4746 9.07812 95.1973 9.11719 94.9277 9.11719C94.4434 9.11719 94.0781 8.9707 93.832 8.67773C93.5859 8.38477 93.4629 7.96875 93.4629 7.42969V3.49805H92.3086V2.66016H93.4629V1.125H94.5469ZM100.18 9H99.0957V2.66016H100.18V9ZM99.0078 0.978516C99.0078 0.802734 99.0605 0.654297 99.166 0.533203C99.2754 0.412109 99.4355 0.351562 99.6465 0.351562C99.8574 0.351562 100.018 0.412109 100.127 0.533203C100.236 0.654297 100.291 0.802734 100.291 0.978516C100.291 1.1543 100.236 1.30078 100.127 1.41797C100.018 1.53516 99.8574 1.59375 99.6465 1.59375C99.4355 1.59375 99.2754 1.53516 99.166 1.41797C99.0605 1.30078 99.0078 1.1543 99.0078 0.978516ZM103.633 5.77148C103.633 5.15039 103.754 4.5918 103.996 4.0957C104.242 3.59961 104.582 3.2168 105.016 2.94727C105.453 2.67773 105.951 2.54297 106.51 2.54297C107.373 2.54297 108.07 2.8418 108.602 3.43945C109.137 4.03711 109.404 4.83203 109.404 5.82422V5.90039C109.404 6.51758 109.285 7.07227 109.047 7.56445C108.812 8.05273 108.475 8.43359 108.033 8.70703C107.596 8.98047 107.092 9.11719 106.521 9.11719C105.662 9.11719 104.965 8.81836 104.43 8.2207C103.898 7.62305 103.633 6.83203 103.633 5.84766V5.77148ZM104.723 5.90039C104.723 6.60352 104.885 7.16797 105.209 7.59375C105.537 8.01953 105.975 8.23242 106.521 8.23242C107.072 8.23242 107.51 8.01758 107.834 7.58789C108.158 7.1543 108.32 6.54883 108.32 5.77148C108.32 5.07617 108.154 4.51367 107.822 4.08398C107.494 3.65039 107.057 3.43359 106.51 3.43359C105.975 3.43359 105.543 3.64648 105.215 4.07227C104.887 4.49805 104.723 5.10742 104.723 5.90039ZM113.789 2.66016L113.824 3.45703C114.309 2.84766 114.941 2.54297 115.723 2.54297C117.062 2.54297 117.738 3.29883 117.75 4.81055V9H116.666V4.80469C116.662 4.34766 116.557 4.00977 116.35 3.79102C116.146 3.57227 115.828 3.46289 115.395 3.46289C115.043 3.46289 114.734 3.55664 114.469 3.74414C114.203 3.93164 113.996 4.17773 113.848 4.48242V9H112.764V2.66016H113.789ZM130.275 9C130.213 8.875 130.162 8.65234 130.123 8.33203C129.619 8.85547 129.018 9.11719 128.318 9.11719C127.693 9.11719 127.18 8.94141 126.777 8.58984C126.379 8.23438 126.18 7.78516 126.18 7.24219C126.18 6.58203 126.43 6.07031 126.93 5.70703C127.434 5.33984 128.141 5.15625 129.051 5.15625H130.105V4.6582C130.105 4.2793 129.992 3.97852 129.766 3.75586C129.539 3.5293 129.205 3.41602 128.764 3.41602C128.377 3.41602 128.053 3.51367 127.791 3.70898C127.529 3.9043 127.398 4.14062 127.398 4.41797H126.309C126.309 4.10156 126.42 3.79688 126.643 3.50391C126.869 3.20703 127.174 2.97266 127.557 2.80078C127.943 2.62891 128.367 2.54297 128.828 2.54297C129.559 2.54297 130.131 2.72656 130.545 3.09375C130.959 3.45703 131.174 3.95898 131.189 4.59961V7.51758C131.189 8.09961 131.264 8.5625 131.412 8.90625V9H130.275ZM128.477 8.17383C128.816 8.17383 129.139 8.08594 129.443 7.91016C129.748 7.73438 129.969 7.50586 130.105 7.22461V5.92383H129.256C127.928 5.92383 127.264 6.3125 127.264 7.08984C127.264 7.42969 127.377 7.69531 127.604 7.88672C127.83 8.07812 128.121 8.17383 128.477 8.17383ZM136.887 7.5293L138.457 2.66016H139.564L137.291 9H136.465L134.168 2.66016H135.275L136.887 7.5293ZM146.428 9C146.365 8.875 146.314 8.65234 146.275 8.33203C145.771 8.85547 145.17 9.11719 144.471 9.11719C143.846 9.11719 143.332 8.94141 142.93 8.58984C142.531 8.23438 142.332 7.78516 142.332 7.24219C142.332 6.58203 142.582 6.07031 143.082 5.70703C143.586 5.33984 144.293 5.15625 145.203 5.15625H146.258V4.6582C146.258 4.2793 146.145 3.97852 145.918 3.75586C145.691 3.5293 145.357 3.41602 144.916 3.41602C144.529 3.41602 144.205 3.51367 143.943 3.70898C143.682 3.9043 143.551 4.14062 143.551 4.41797H142.461C142.461 4.10156 142.572 3.79688 142.795 3.50391C143.021 3.20703 143.326 2.97266 143.709 2.80078C144.096 2.62891 144.52 2.54297 144.98 2.54297C145.711 2.54297 146.283 2.72656 146.697 3.09375C147.111 3.45703 147.326 3.95898 147.342 4.59961V7.51758C147.342 8.09961 147.416 8.5625 147.564 8.90625V9H146.428ZM144.629 8.17383C144.969 8.17383 145.291 8.08594 145.596 7.91016C145.9 7.73438 146.121 7.50586 146.258 7.22461V5.92383H145.408C144.08 5.92383 143.416 6.3125 143.416 7.08984C143.416 7.42969 143.529 7.69531 143.756 7.88672C143.982 8.07812 144.273 8.17383 144.629 8.17383ZM152.219 9H151.135V2.66016H152.219V9ZM151.047 0.978516C151.047 0.802734 151.1 0.654297 151.205 0.533203C151.314 0.412109 151.475 0.351562 151.686 0.351562C151.896 0.351562 152.057 0.412109 152.166 0.533203C152.275 0.654297 152.33 0.802734 152.33 0.978516C152.33 1.1543 152.275 1.30078 152.166 1.41797C152.057 1.53516 151.896 1.59375 151.686 1.59375C151.475 1.59375 151.314 1.53516 151.205 1.41797C151.1 1.30078 151.047 1.1543 151.047 0.978516ZM157.137 9H156.053V0H157.137V9ZM164.791 9C164.729 8.875 164.678 8.65234 164.639 8.33203C164.135 8.85547 163.533 9.11719 162.834 9.11719C162.209 9.11719 161.695 8.94141 161.293 8.58984C160.895 8.23438 160.695 7.78516 160.695 7.24219C160.695 6.58203 160.945 6.07031 161.445 5.70703C161.949 5.33984 162.656 5.15625 163.566 5.15625H164.621V4.6582C164.621 4.2793 164.508 3.97852 164.281 3.75586C164.055 3.5293 163.721 3.41602 163.279 3.41602C162.893 3.41602 162.568 3.51367 162.307 3.70898C162.045 3.9043 161.914 4.14062 161.914 4.41797H160.824C160.824 4.10156 160.936 3.79688 161.158 3.50391C161.385 3.20703 161.689 2.97266 162.072 2.80078C162.459 2.62891 162.883 2.54297 163.344 2.54297C164.074 2.54297 164.646 2.72656 165.061 3.09375C165.475 3.45703 165.689 3.95898 165.705 4.59961V7.51758C165.705 8.09961 165.779 8.5625 165.928 8.90625V9H164.791ZM162.992 8.17383C163.332 8.17383 163.654 8.08594 163.959 7.91016C164.264 7.73438 164.484 7.50586 164.621 7.22461V5.92383H163.771C162.443 5.92383 161.779 6.3125 161.779 7.08984C161.779 7.42969 161.893 7.69531 162.119 7.88672C162.346 8.07812 162.637 8.17383 162.992 8.17383ZM174.771 5.90039C174.771 6.86914 174.549 7.64844 174.104 8.23828C173.658 8.82422 173.061 9.11719 172.311 9.11719C171.51 9.11719 170.891 8.83398 170.453 8.26758L170.4 9H169.404V0H170.488V3.35742C170.926 2.81445 171.529 2.54297 172.299 2.54297C173.068 2.54297 173.672 2.83398 174.109 3.41602C174.551 3.99805 174.771 4.79492 174.771 5.80664V5.90039ZM173.688 5.77734C173.688 5.03906 173.545 4.46875 173.26 4.06641C172.975 3.66406 172.564 3.46289 172.029 3.46289C171.314 3.46289 170.801 3.79492 170.488 4.45898V7.20117C170.82 7.86523 171.338 8.19727 172.041 8.19727C172.561 8.19727 172.965 7.99609 173.254 7.59375C173.543 7.19141 173.688 6.58594 173.688 5.77734ZM179.32 9H178.236V0H179.32V9ZM185.691 9.11719C184.832 9.11719 184.133 8.83594 183.594 8.27344C183.055 7.70703 182.785 6.95117 182.785 6.00586V5.80664C182.785 5.17773 182.904 4.61719 183.143 4.125C183.385 3.62891 183.721 3.24219 184.15 2.96484C184.584 2.68359 185.053 2.54297 185.557 2.54297C186.381 2.54297 187.021 2.81445 187.479 3.35742C187.936 3.90039 188.164 4.67773 188.164 5.68945V6.14062H183.869C183.885 6.76562 184.066 7.27148 184.414 7.6582C184.766 8.04102 185.211 8.23242 185.75 8.23242C186.133 8.23242 186.457 8.1543 186.723 7.99805C186.988 7.8418 187.221 7.63477 187.42 7.37695L188.082 7.89258C187.551 8.70898 186.754 9.11719 185.691 9.11719ZM185.557 3.43359C185.119 3.43359 184.752 3.59375 184.455 3.91406C184.158 4.23047 183.975 4.67578 183.904 5.25H187.08V5.16797C187.049 4.61719 186.9 4.19141 186.635 3.89062C186.369 3.58594 186.01 3.43359 185.557 3.43359ZM200.314 9C200.252 8.875 200.201 8.65234 200.162 8.33203C199.658 8.85547 199.057 9.11719 198.357 9.11719C197.732 9.11719 197.219 8.94141 196.816 8.58984C196.418 8.23438 196.219 7.78516 196.219 7.24219C196.219 6.58203 196.469 6.07031 196.969 5.70703C197.473 5.33984 198.18 5.15625 199.09 5.15625H200.145V4.6582C200.145 4.2793 200.031 3.97852 199.805 3.75586C199.578 3.5293 199.244 3.41602 198.803 3.41602C198.416 3.41602 198.092 3.51367 197.83 3.70898C197.568 3.9043 197.438 4.14062 197.438 4.41797H196.348C196.348 4.10156 196.459 3.79688 196.682 3.50391C196.908 3.20703 197.213 2.97266 197.596 2.80078C197.982 2.62891 198.406 2.54297 198.867 2.54297C199.598 2.54297 200.17 2.72656 200.584 3.09375C200.998 3.45703 201.213 3.95898 201.229 4.59961V7.51758C201.229 8.09961 201.303 8.5625 201.451 8.90625V9H200.314ZM198.516 8.17383C198.855 8.17383 199.178 8.08594 199.482 7.91016C199.787 7.73438 200.008 7.50586 200.145 7.22461V5.92383H199.295C197.967 5.92383 197.303 6.3125 197.303 7.08984C197.303 7.42969 197.416 7.69531 197.643 7.88672C197.869 8.07812 198.16 8.17383 198.516 8.17383ZM206.398 1.125V2.66016H207.582V3.49805H206.398V7.42969C206.398 7.68359 206.451 7.875 206.557 8.00391C206.662 8.12891 206.842 8.19141 207.096 8.19141C207.221 8.19141 207.393 8.16797 207.611 8.12109V9C207.326 9.07812 207.049 9.11719 206.779 9.11719C206.295 9.11719 205.93 8.9707 205.684 8.67773C205.438 8.38477 205.314 7.96875 205.314 7.42969V3.49805H204.16V2.66016H205.314V1.125H206.398ZM218.373 8.23242C218.76 8.23242 219.098 8.11523 219.387 7.88086C219.676 7.64648 219.836 7.35352 219.867 7.00195H220.893C220.873 7.36523 220.748 7.71094 220.518 8.03906C220.287 8.36719 219.979 8.62891 219.592 8.82422C219.209 9.01953 218.803 9.11719 218.373 9.11719C217.51 9.11719 216.822 8.83008 216.311 8.25586C215.803 7.67773 215.549 6.88867 215.549 5.88867V5.70703C215.549 5.08984 215.662 4.54102 215.889 4.06055C216.115 3.58008 216.439 3.20703 216.861 2.94141C217.287 2.67578 217.789 2.54297 218.367 2.54297C219.078 2.54297 219.668 2.75586 220.137 3.18164C220.609 3.60742 220.861 4.16016 220.893 4.83984H219.867C219.836 4.42969 219.68 4.09375 219.398 3.83203C219.121 3.56641 218.777 3.43359 218.367 3.43359C217.816 3.43359 217.389 3.63281 217.084 4.03125C216.783 4.42578 216.633 4.99805 216.633 5.74805V5.95312C216.633 6.68359 216.783 7.24609 217.084 7.64062C217.385 8.03516 217.814 8.23242 218.373 8.23242ZM225.195 3.42773C225.676 2.83789 226.301 2.54297 227.07 2.54297C228.41 2.54297 229.086 3.29883 229.098 4.81055V9H228.014V4.80469C228.01 4.34766 227.904 4.00977 227.697 3.79102C227.494 3.57227 227.176 3.46289 226.742 3.46289C226.391 3.46289 226.082 3.55664 225.816 3.74414C225.551 3.93164 225.344 4.17773 225.195 4.48242V9H224.111V0H225.195V3.42773ZM235.352 9.11719C234.492 9.11719 233.793 8.83594 233.254 8.27344C232.715 7.70703 232.445 6.95117 232.445 6.00586V5.80664C232.445 5.17773 232.564 4.61719 232.803 4.125C233.045 3.62891 233.381 3.24219 233.811 2.96484C234.244 2.68359 234.713 2.54297 235.217 2.54297C236.041 2.54297 236.682 2.81445 237.139 3.35742C237.596 3.90039 237.824 4.67773 237.824 5.68945V6.14062H233.529C233.545 6.76562 233.727 7.27148 234.074 7.6582C234.426 8.04102 234.871 8.23242 235.41 8.23242C235.793 8.23242 236.117 8.1543 236.383 7.99805C236.648 7.8418 236.881 7.63477 237.08 7.37695L237.742 7.89258C237.211 8.70898 236.414 9.11719 235.352 9.11719ZM235.217 3.43359C234.779 3.43359 234.412 3.59375 234.115 3.91406C233.818 4.23047 233.635 4.67578 233.564 5.25H236.74V5.16797C236.709 4.61719 236.561 4.19141 236.295 3.89062C236.029 3.58594 235.67 3.43359 235.217 3.43359ZM243.627 8.23242C244.014 8.23242 244.352 8.11523 244.641 7.88086C244.93 7.64648 245.09 7.35352 245.121 7.00195H246.146C246.127 7.36523 246.002 7.71094 245.771 8.03906C245.541 8.36719 245.232 8.62891 244.846 8.82422C244.463 9.01953 244.057 9.11719 243.627 9.11719C242.764 9.11719 242.076 8.83008 241.564 8.25586C241.057 7.67773 240.803 6.88867 240.803 5.88867V5.70703C240.803 5.08984 240.916 4.54102 241.143 4.06055C241.369 3.58008 241.693 3.20703 242.115 2.94141C242.541 2.67578 243.043 2.54297 243.621 2.54297C244.332 2.54297 244.922 2.75586 245.391 3.18164C245.863 3.60742 246.115 4.16016 246.146 4.83984H245.121C245.09 4.42969 244.934 4.09375 244.652 3.83203C244.375 3.56641 244.031 3.43359 243.621 3.43359C243.07 3.43359 242.643 3.63281 242.338 4.03125C242.037 4.42578 241.887 4.99805 241.887 5.74805V5.95312C241.887 6.68359 242.037 7.24609 242.338 7.64062C242.639 8.03516 243.068 8.23242 243.627 8.23242ZM251.135 6.06445L250.455 6.77344V9H249.371V0H250.455V5.44336L251.035 4.74609L253.01 2.66016H254.328L251.861 5.30859L254.615 9H253.344L251.135 6.06445ZM257.16 5.77148C257.16 5.15039 257.281 4.5918 257.523 4.0957C257.77 3.59961 258.109 3.2168 258.543 2.94727C258.98 2.67773 259.479 2.54297 260.037 2.54297C260.9 2.54297 261.598 2.8418 262.129 3.43945C262.664 4.03711 262.932 4.83203 262.932 5.82422V5.90039C262.932 6.51758 262.812 7.07227 262.574 7.56445C262.34 8.05273 262.002 8.43359 261.561 8.70703C261.123 8.98047 260.619 9.11719 260.049 9.11719C259.189 9.11719 258.492 8.81836 257.957 8.2207C257.426 7.62305 257.16 6.83203 257.16 5.84766V5.77148ZM258.25 5.90039C258.25 6.60352 258.412 7.16797 258.736 7.59375C259.064 8.01953 259.502 8.23242 260.049 8.23242C260.6 8.23242 261.037 8.01758 261.361 7.58789C261.686 7.1543 261.848 6.54883 261.848 5.77148C261.848 5.07617 261.682 4.51367 261.35 4.08398C261.021 3.65039 260.584 3.43359 260.037 3.43359C259.502 3.43359 259.07 3.64648 258.742 4.07227C258.414 4.49805 258.25 5.10742 258.25 5.90039ZM270.205 8.37305C269.783 8.86914 269.164 9.11719 268.348 9.11719C267.672 9.11719 267.156 8.92188 266.801 8.53125C266.449 8.13672 266.271 7.55469 266.268 6.78516V2.66016H267.352V6.75586C267.352 7.7168 267.742 8.19727 268.523 8.19727C269.352 8.19727 269.902 7.88867 270.176 7.27148V2.66016H271.26V9H270.229L270.205 8.37305ZM276.383 1.125V2.66016H277.566V3.49805H276.383V7.42969C276.383 7.68359 276.436 7.875 276.541 8.00391C276.646 8.12891 276.826 8.19141 277.08 8.19141C277.205 8.19141 277.377 8.16797 277.596 8.12109V9C277.311 9.07812 277.033 9.11719 276.764 9.11719C276.279 9.11719 275.914 8.9707 275.668 8.67773C275.422 8.38477 275.299 7.96875 275.299 7.42969V3.49805H274.145V2.66016H275.299V1.125H276.383ZM280.861 8.43164C280.861 8.24414 280.916 8.08789 281.025 7.96289C281.139 7.83789 281.307 7.77539 281.529 7.77539C281.752 7.77539 281.92 7.83789 282.033 7.96289C282.15 8.08789 282.209 8.24414 282.209 8.43164C282.209 8.61133 282.15 8.76172 282.033 8.88281C281.92 9.00391 281.752 9.06445 281.529 9.06445C281.307 9.06445 281.139 9.00391 281.025 8.88281C280.916 8.76172 280.861 8.61133 280.861 8.43164Z" fill="#FBFBFB"/>
</svg>
